<?xml version="1.0" standalone="no"?>
<!DOCTYPE svg PUBLIC "-//W3C//DTD SVG 20010904//EN"
 "http://www.w3.org/TR/2001/REC-SVG-20010904/DTD/svg10.dtd">
<svg version="1.0" xmlns="http://www.w3.org/2000/svg"
 width="238.000000pt" height="60.000000pt" viewBox="0 0 238.000000 60.000000"
 preserveAspectRatio="xMidYMid meet">

<g transform="translate(0.000000,60.000000) scale(0.100000,-0.100000)"
fill="#000000" stroke="none">
<path d="M1181 305 l2 -175 34 0 33 0 0 120 c0 135 -6 125 98 161 71 25 185
27 269 5 67 -18 188 -23 243 -11 34 7 130 51 130 59 0 2 -23 -5 -51 -15 -99
-38 -174 -36 -329 6 -76 21 -180 20 -274 -5 -44 -11 -81 -20 -83 -20 -1 0 -3
11 -3 25 0 22 -4 25 -36 25 l-35 0 2 -175z"/>
<path d="M912 428 c3 -9 30 -14 77 -16 84 -3 91 -11 63 -74 -23 -50 -62 -95
-115 -130 -31 -21 -35 -27 -23 -37 32 -27 174 79 206 154 10 22 21 57 24 78
l7 37 -121 0 c-93 0 -121 -3 -118 -12z"/>
<path d="M353 370 c-23 -10 -43 -39 -43 -64 0 -29 38 -56 78 -56 44 0 72 23
72 61 0 30 -9 43 -37 58 -25 13 -40 13 -70 1z m55 -32 c18 -18 15 -46 -6 -57
-23 -12 -42 3 -42 34 0 35 24 47 48 23z"/>
<path d="M490 290 c0 -89 0 -90 25 -90 23 0 25 3 25 50 0 43 3 50 20 50 11 0
20 7 20 15 0 8 -9 15 -20 15 -15 0 -20 7 -20 25 0 20 -5 25 -25 25 -25 0 -25
-1 -25 -90z"/>
<path d="M637 373 c-4 -3 -7 -21 -7 -40 0 -32 -28 -73 -50 -73 -5 0 -10 -4
-10 -10 0 -16 43 -12 68 6 21 15 25 15 41 0 16 -14 61 -23 61 -12 0 3 -13 18
-30 34 -22 23 -30 40 -30 66 0 28 -4 36 -18 36 -10 0 -22 -3 -25 -7z"/>
<path d="M760 290 c0 -89 0 -90 25 -90 23 0 25 3 25 50 0 43 3 50 20 50 11 0
20 7 20 15 0 8 -9 15 -20 15 -15 0 -20 7 -20 25 0 20 -5 25 -25 25 -25 0 -25
-1 -25 -90z"/>
<path d="M1346 370 c5 -5 52 -10 104 -12 90 -3 95 -4 98 -25 3 -23 1 -23 -97
-23 l-101 0 0 -39 c0 -46 10 -55 65 -56 34 0 41 -4 43 -22 3 -22 0 -23 -67
-23 -41 0 -71 -4 -71 -10 0 -6 60 -10 160 -10 100 0 160 4 160 10 0 6 -27 10
-61 10 -57 0 -60 1 -57 23 2 17 10 22 34 23 37 1 64 10 64 21 0 4 -45 7 -100
5 l-100 -3 0 25 c0 25 1 25 98 28 l97 3 3 43 3 42 -142 0 c-91 0 -140 -3 -133
-10z"/>
<path d="M1800 371 c0 -5 -25 -26 -56 -47 -39 -27 -51 -40 -40 -42 10 -2 35 9
57 25 22 15 46 32 53 37 9 6 28 -2 61 -27 37 -29 57 -37 89 -37 l41 1 -55 49
c-49 44 -60 49 -102 50 -27 0 -48 -4 -48 -9z"/>
<path d="M1670 230 c0 -6 32 -10 75 -10 l75 0 0 -45 c0 -45 0 -45 35 -45 35 0
35 0 35 45 l0 45 75 0 c43 0 75 4 75 10 0 6 -68 10 -185 10 -117 0 -185 -4
-185 -10z"/>
<path d="M360 187 c0 -18 5 -38 12 -45 15 -15 178 -17 178 -2 0 6 -30 10 -70
10 l-70 0 0 35 c0 31 -3 35 -25 35 -22 0 -25 -4 -25 -33z"/>
<path d="M632 173 l3 -38 93 -3 c56 -2 92 1 92 7 0 6 -33 11 -72 13 -71 3 -73
4 -76 31 -2 19 -9 27 -23 27 -17 0 -20 -6 -17 -37z"/>
</g>
</svg>
